<svg width="21" height="21" viewBox="0 0 21 21" fill="none" xmlns="http://www.w3.org/2000/svg">
<path d="M12.25 7.7C12.25 7.61956 12.2793 7.53688 12.338 7.45196C12.3967 7.36706 12.4622 7.31119 12.5344 7.28438C12.9719 7.12396 13.4191 7 13.8761 6.9125C14.3331 6.825 14.8137 6.78125 15.3179 6.78125C15.6331 6.78125 15.9443 6.79948 16.2516 6.83594C16.5589 6.8724 16.8583 6.92708 17.15 7C17.2375 7.02917 17.3177 7.08309 17.3906 7.16177C17.4635 7.24046 17.5 7.32898 17.5 7.42733C17.5 7.59453 17.4453 7.72188 17.3359 7.80938C17.2266 7.89688 17.0917 7.91875 16.9312 7.875C16.6862 7.80208 16.4281 7.7474 16.1569 7.71094C15.8856 7.67448 15.6042 7.65625 15.3125 7.65625C14.8896 7.65625 14.4812 7.69635 14.0875 7.77656C13.6937 7.85677 13.3073 7.97708 12.9281 8.1375C12.724 8.21042 12.5599 8.20677 12.4359 8.12656C12.312 8.04635 12.25 7.90417 12.25 7.7ZM12.25 12.5125C12.25 12.4278 12.2793 12.3408 12.338 12.2514C12.3967 12.162 12.4622 12.1032 12.5344 12.075C12.9719 11.9146 13.4191 11.7943 13.8761 11.7141C14.3331 11.6339 14.8137 11.5938 15.3179 11.5938C15.6331 11.5938 15.9443 11.612 16.2516 11.6484C16.5589 11.6849 16.8583 11.7396 17.15 11.8125C17.2375 11.8417 17.3177 11.8956 17.3906 11.9743C17.4635 12.053 17.5 12.1415 17.5 12.2398C17.5 12.407 17.4453 12.5344 17.3359 12.6219C17.2266 12.7094 17.0917 12.7313 16.9312 12.6875C16.6862 12.6146 16.4281 12.5599 16.1569 12.5234C15.8856 12.487 15.6042 12.4688 15.3125 12.4688C14.8896 12.4688 14.4812 12.5052 14.0875 12.5781C13.6937 12.651 13.3073 12.7677 12.9281 12.9281C12.724 13.001 12.5599 13.001 12.4359 12.9281C12.312 12.8552 12.25 12.7167 12.25 12.5125ZM12.25 10.1063C12.25 10.0258 12.2793 9.94313 12.338 9.85821C12.3967 9.77331 12.4622 9.71744 12.5344 9.69063C12.9719 9.53021 13.4191 9.40625 13.8761 9.31875C14.3331 9.23125 14.8137 9.1875 15.3179 9.1875C15.6331 9.1875 15.9443 9.20573 16.2516 9.24219C16.5589 9.27865 16.8583 9.33333 17.15 9.40625C17.2375 9.43542 17.3177 9.48934 17.3906 9.56802C17.4635 9.64671 17.5 9.73523 17.5 9.83358C17.5 10.0008 17.4453 10.1281 17.3359 10.2156C17.2266 10.3031 17.0917 10.325 16.9312 10.2813C16.6862 10.2083 16.4281 10.1536 16.1569 10.1172C15.8856 10.0807 15.6042 10.0625 15.3125 10.0625C14.8896 10.0625 14.4812 10.1026 14.0875 10.1828C13.6937 10.263 13.3073 10.3833 12.9281 10.5438C12.724 10.6167 12.5599 10.613 12.4359 10.5328C12.312 10.4526 12.25 10.3104 12.25 10.1063ZM5.425 14.4375C6.20617 14.4375 6.96657 14.5286 7.70619 14.7109C8.44581 14.8932 9.17292 15.1667 9.8875 15.5313V6.19063C9.23125 5.75313 8.51944 5.41406 7.75208 5.17344C6.98474 4.93281 6.20904 4.8125 5.425 4.8125C4.87083 4.8125 4.3276 4.88177 3.79531 5.02031C3.26302 5.15885 2.72708 5.33021 2.1875 5.53438V15.0281C2.63958 14.824 3.15365 14.6745 3.72969 14.5797C4.30573 14.4849 4.87083 14.4375 5.425 14.4375ZM11.2 15.5313C11.9292 15.1667 12.6438 14.8932 13.3438 14.7109C14.0437 14.5286 14.7875 14.4375 15.575 14.4375C16.1292 14.4375 16.7016 14.4813 17.2922 14.5688C17.8828 14.6563 18.3896 14.7729 18.8125 14.9188V5.53438C18.3167 5.28646 17.793 5.10417 17.2414 4.9875C16.6898 4.87083 16.1343 4.8125 15.575 4.8125C14.7875 4.8125 14.0255 4.93281 13.2891 5.17344C12.5526 5.41406 11.8562 5.75313 11.2 6.19063V15.5313ZM10.5437 17.2594C10.4338 17.2594 10.3298 17.2484 10.2316 17.2266C10.1335 17.2047 10.0479 17.1646 9.975 17.1063C9.28958 16.6833 8.56153 16.3552 7.79085 16.1219C7.02015 15.8885 6.23153 15.7719 5.425 15.7719C4.89217 15.7719 4.36886 15.8375 3.85507 15.9688C3.34127 16.1 2.82917 16.2604 2.31875 16.45C1.98187 16.6104 1.65703 16.5885 1.34422 16.3844C1.03141 16.1802 0.875 15.8885 0.875 15.5094V5.38125C0.875 5.1625 0.926042 4.96198 1.02813 4.77969C1.13021 4.5974 1.28333 4.45521 1.4875 4.35313C2.1 4.06146 2.73726 3.84635 3.39927 3.70781C4.06126 3.56927 4.73651 3.5 5.425 3.5C6.34375 3.5 7.23698 3.62396 8.10469 3.87188C8.9724 4.11979 9.78542 4.49896 10.5437 5.00938C11.2875 4.49896 12.0859 4.11979 12.9391 3.87188C13.7922 3.62396 14.6708 3.5 15.575 3.5C16.2585 3.5 16.9288 3.56927 17.5861 3.70781C18.2433 3.84635 18.8781 4.06146 19.4906 4.35313C19.6948 4.45521 19.8516 4.5974 19.9609 4.77969C20.0703 4.96198 20.125 5.1625 20.125 5.38125V15.5094C20.125 15.9162 19.9609 16.2257 19.6328 16.4379C19.3047 16.6501 18.9802 16.6542 18.6594 16.45C18.1635 16.2458 17.6587 16.0818 17.1449 15.9578C16.6311 15.8339 16.1078 15.7719 15.575 15.7719C14.7835 15.7719 14.0096 15.8885 13.2533 16.1219C12.4969 16.3552 11.7833 16.6833 11.1125 17.1063C11.0396 17.1646 10.954 17.2047 10.8559 17.2266C10.7577 17.2484 10.6537 17.2594 10.5437 17.2594Z" fill="#D3F36B"/>
</svg>
